FILE "NHL Hockey '94 (1994)(Electronic Arts)(EU)(en).img" BINARY
  TRACK 01 MODE1/2352
    INDEX 01 00:00:00
  TRACK 02 AUDIO
    PREGAP 00:02:00
    INDEX 01 19:46:65
  TRACK 03 AUDIO
    INDEX 01 21:29:34
  TRACK 04 AUDIO
    INDEX 01 22:58:06
  TRACK 05 AUDIO
    INDEX 01 24:06:48
  TRACK 06 AUDIO
    INDEX 01 25:21:37
  TRACK 07 AUDIO
    INDEX 01 25:31:63
  TRACK 08 AUDIO
    INDEX 01 25:55:34
  TRACK 09 AUDIO
    INDEX 01 26:19:03
  TRACK 10 AUDIO
    INDEX 01 26:45:30
  TRACK 11 AUDIO
    INDEX 01 27:02:16
  TRACK 12 AUDIO
    INDEX 01 27:29:25
  TRACK 13 AUDIO
    INDEX 01 27:51:04
  TRACK 14 AUDIO
    INDEX 01 28:15:00
  TRACK 15 AUDIO
    INDEX 01 28:39:68
  TRACK 16 AUDIO
    INDEX 01 29:04:18
  TRACK 17 AUDIO
    INDEX 01 29:22:52
  TRACK 18 AUDIO
    INDEX 01 29:38:16
  TRACK 19 AUDIO
    INDEX 01 30:03:18
  TRACK 20 AUDIO
    INDEX 01 30:31:17
  TRACK 21 AUDIO
    INDEX 01 30:46:36
  TRACK 22 AUDIO
    INDEX 01 31:07:44
  TRACK 23 AUDIO
    INDEX 01 31:30:36
  TRACK 24 AUDIO
    INDEX 01 32:01:34
  TRACK 25 AUDIO
    INDEX 01 32:29:05
  TRACK 26 AUDIO
    INDEX 01 32:51:07
  TRACK 27 AUDIO
    INDEX 01 33:11:29
  TRACK 28 AUDIO
    INDEX 01 33:34:35
  TRACK 29 AUDIO
    INDEX 01 34:01:37
  TRACK 30 AUDIO
    INDEX 01 34:23:36
  TRACK 31 AUDIO
    INDEX 01 34:49:51
  TRACK 32 AUDIO
    INDEX 01 35:12:53
  TRACK 33 AUDIO
    INDEX 01 35:38:55
  TRACK 34 AUDIO
    INDEX 01 35:56:10
  TRACK 35 AUDIO
    INDEX 01 36:15:53
  TRACK 36 AUDIO
    INDEX 01 36:33:65
  TRACK 37 AUDIO
    INDEX 01 36:52:13
  TRACK 38 AUDIO
    INDEX 01 37:06:74
  TRACK 39 AUDIO
    INDEX 01 37:26:01
  TRACK 40 AUDIO
    INDEX 01 37:50:48
  TRACK 41 AUDIO
    INDEX 01 38:12:03
  TRACK 42 AUDIO
    INDEX 01 38:34:05
  TRACK 43 AUDIO
    INDEX 01 38:54:61
  TRACK 44 AUDIO
    INDEX 01 39:17:52
  TRACK 45 AUDIO
    INDEX 01 39:38:40
  TRACK 46 AUDIO
    INDEX 01 39:56:05
  TRACK 47 AUDIO
    INDEX 01 40:14:74
  TRACK 48 AUDIO
    INDEX 01 40:43:03
  TRACK 49 AUDIO
    INDEX 01 40:58:29
  TRACK 50 AUDIO
    INDEX 01 41:13:71
  TRACK 51 AUDIO
    INDEX 01 41:37:53
  TRACK 52 AUDIO
    INDEX 01 41:56:26
  TRACK 53 AUDIO
    INDEX 01 42:15:08
  TRACK 54 AUDIO
    INDEX 01 42:41:71
  TRACK 55 AUDIO
    INDEX 01 43:08:46
  TRACK 56 AUDIO
    INDEX 01 43:35:21
  TRACK 57 AUDIO
    ISRC E?4001000440
    INDEX 01 43:59:74
  TRACK 58 AUDIO
    INDEX 01 44:32:13
  TRACK 59 AUDIO
    INDEX 01 45:03:70
  TRACK 60 AUDIO
    INDEX 01 45:27:07
  TRACK 61 AUDIO
    INDEX 01 46:02:14
  TRACK 62 AUDIO
    INDEX 01 46:30:16
  TRACK 63 AUDIO
    INDEX 01 46:52:70
  TRACK 64 AUDIO
    INDEX 01 47:21:72
  TRACK 65 AUDIO
    INDEX 01 47:40:55
  TRACK 66 AUDIO
    INDEX 01 47:57:55
  TRACK 67 AUDIO
    INDEX 01 48:12:23
  TRACK 68 AUDIO
    INDEX 01 48:32:74
  TRACK 69 AUDIO
    INDEX 01 48:51:56
  TRACK 70 AUDIO
    INDEX 01 49:05:63
  TRACK 71 AUDIO
    INDEX 01 49:23:06
  TRACK 72 AUDIO
    INDEX 01 49:37:46
  TRACK 73 AUDIO
    INDEX 01 49:54:18
  TRACK 74 AUDIO
    INDEX 01 50:23:17
  TRACK 75 AUDIO
    INDEX 01 50:46:05
  TRACK 76 AUDIO
    INDEX 01 51:16:40
  TRACK 77 AUDIO
    INDEX 01 51:34:42
  TRACK 78 AUDIO
    INDEX 01 51:59:04
  TRACK 79 AUDIO
    INDEX 01 52:21:60
